<svg width="150" height="33" viewBox="0 0 150 33" fill="none" xmlns="http://www.w3.org/2000/svg">
<g clip-path="url(#clip0_232_165)">
<path d="M119.91 9.62573C118.461 9.62573 117.283 10.7996 117.283 12.2416C117.283 13.6836 118.461 14.8559 119.91 14.8559C121.359 14.8559 122.539 13.6836 122.539 12.2416C122.539 10.7996 121.359 9.62573 119.91 9.62573Z" fill="#1A43F6"/>
<path d="M117.445 0.5C108.565 0.5 101.367 7.66354 101.367 16.5C101.367 25.3365 108.565 32.5 117.445 32.5C125.77 32.5 132.616 26.2079 133.442 18.1395H125.227C125.622 18.9285 125.845 19.8202 125.845 20.76C125.845 24.0157 123.183 26.6627 119.911 26.6627C117.128 26.6627 114.788 24.7488 114.151 22.1741C113.625 22.3272 113.069 22.4088 112.494 22.4088C109.222 22.4088 106.56 19.7603 106.56 16.5062C106.56 13.2521 109.222 10.602 112.494 10.602C113.069 10.602 113.624 10.6844 114.149 10.8368C114.784 8.25668 117.125 6.33656 119.911 6.33656C123.183 6.33656 125.845 8.98508 125.845 12.2407C125.845 13.1759 125.625 14.0629 125.231 14.8504H133.441C132.611 6.78899 125.766 0.5 117.445 0.5Z" fill="#1A43F6"/>
<path d="M119.91 18.144C118.461 18.144 117.283 19.3179 117.283 20.7599C117.283 22.202 118.461 23.3742 119.91 23.3742C121.359 23.3742 122.539 22.202 122.539 20.7599C122.539 19.3179 121.359 18.144 119.91 18.144Z" fill="#1A43F6"/>
<path d="M109.864 16.5063C109.864 17.9467 111.044 19.1206 112.493 19.1206C113.942 19.1206 115.12 17.9467 115.12 16.5063C115.12 15.0658 113.942 13.8904 112.493 13.8904C111.044 13.8904 109.864 15.0642 109.864 16.5063Z" fill="#1A43F6"/>
<path d="M150 18.1394V14.8511H133.441C133.526 15.3937 133.568 15.9425 133.568 16.4999C133.568 17.0573 133.526 17.5999 133.443 18.1394H143.376V19.7874H140.064V24.7308H143.376V23.0827H146.688V24.7308H149.999V19.7874H146.688V18.1394H149.999H150Z" fill="#1A43F6"/>
<path d="M15.7852 14.1531H11.7312C11.3937 12.5967 9.91953 11.489 8.29141 11.489C6.08047 11.489 4.32969 13.2855 4.32969 16.6679C4.32969 20.0502 5.98828 21.9369 8.32187 21.9369C9.79609 21.9369 11.3008 21.1883 11.8844 19.2721H15.9383C14.9555 23.6728 11.5469 25.1397 8.10703 25.1397C3.16328 25.1397 0 21.6073 0 16.7277C0 11.8481 3.34766 8.2854 8.29219 8.2854C11.7625 8.2854 15.2023 10.1713 15.7859 14.1531H15.7852Z" fill="#1A43F6"/>
<path d="M26.6884 12.6263C26.0743 12.5361 25.5517 12.5361 24.9376 12.5361C22.8493 12.5361 21.4673 13.2847 21.4673 16.3079V24.7503H17.229V8.64453H21.4056V11.4586C22.3579 9.45301 23.8321 8.67485 25.7665 8.67485C26.104 8.67485 26.411 8.70439 26.6876 8.73471V12.6263H26.6884Z" fill="#1A43F6"/>
<path d="M31.0132 17.8355C31.2593 20.5897 33.1632 21.9369 35.1898 21.9369C36.5101 21.9369 37.8 21.4876 38.6601 20.0806H43.021C42.1304 22.4757 39.7351 25.1397 35.2203 25.1397C29.907 25.1397 26.8054 21.2777 26.8054 16.6376C26.8054 11.9974 30.214 8.2854 35.0976 8.2854C39.9812 8.2854 43.3585 12.1474 43.2054 17.8355H31.0132ZM31.075 14.9918H38.9062C38.814 12.2679 36.8484 11.3094 35.0671 11.3094C33.4703 11.3094 31.4125 12.2671 31.075 14.9918Z" fill="#1A43F6"/>
<path d="M56.0431 24.751V22.7151C54.9681 24.5116 53.0024 25.1397 51.2829 25.1397C47.3517 25.1397 44.0962 21.8467 44.0962 16.6974C44.0962 11.548 47.2899 8.28538 51.2829 8.28538C53.3712 8.28538 55.1524 9.18326 56.0431 10.71V3.04663H60.2813V24.751H56.0431ZM56.197 16.6982C56.197 13.4651 54.661 11.4594 52.3274 11.4594C50.1165 11.4594 48.5501 13.6151 48.5501 16.7285C48.5501 19.8419 50.1165 21.9672 52.3274 21.9672C54.6618 21.9672 56.197 20.051 56.197 16.6982Z" fill="#1A43F6"/>
<path d="M61.5171 16.7277C61.5171 11.07 65.6319 8.2854 69.8093 8.2854C73.9866 8.2854 78.1015 11.0692 78.1015 16.7277C78.1015 22.3863 73.9866 25.1405 69.8093 25.1405C65.6319 25.1405 61.5171 22.3567 61.5171 16.7277ZM65.8163 16.7277C65.8163 20.1707 67.4749 21.9066 69.8085 21.9066C72.1421 21.9066 73.8007 20.1707 73.8007 16.7277C73.8007 13.2847 72.1421 11.5185 69.8085 11.5185C67.4749 11.5185 65.8163 13.2847 65.8163 16.7277Z" fill="#1A43F6"/>
<path d="M89.2438 13.4947C88.9063 12.1475 87.6774 11.1897 85.7118 11.1897C84.1454 11.1897 83.0399 11.7588 83.0399 12.7468C83.0399 13.6151 83.6844 14.2736 85.2508 14.6032L87.4618 15.0821C90.7477 15.8004 93.5422 16.6088 93.5422 19.9321C93.5422 23.2554 90.1336 25.1413 86.3868 25.1413C82.3329 25.1413 79.2618 23.1054 78.8625 19.4229H82.9469C83.193 20.98 84.2985 22.1469 86.5094 22.1469C88.3524 22.1469 89.4883 21.4884 89.4883 20.3208C89.4883 19.1532 88.229 18.6743 86.786 18.3447L84.329 17.8355C81.2274 17.2066 79.1696 15.9496 79.1696 13.0158C79.1696 10.082 82.3633 8.22559 85.9258 8.22559C89.4883 8.22559 92.6204 9.78268 93.204 13.4947H89.2422H89.2438Z" fill="#1A43F6"/>
</g>
<defs>
<clipPath id="clip0_232_165">
<rect width="150" height="32" fill="white" transform="translate(0 0.5)"/>
</clipPath>
</defs>
</svg>
