<svg xmlns="http://www.w3.org/2000/svg" id="Layer_1" viewBox="0 0 1885.8 509.5"><defs><style>      .st0 {        fill: #292555;        fill-rule: evenodd;      }    </style></defs><path class="st0" d="M271.1,413.7c11.8,11.6,26,17.4,42.7,17.4s30.8-5.8,42.4-17.4,17.4-25.4,17.4-41.5-5.8-29.9-17.4-41.5-25.8-17.4-42.4-17.4-30.8,5.8-42.5,17.4c-11.7,11.6-17.6,25.4-17.6,41.5s5.8,29.9,17.4,41.5ZM389,443.9c-20.7,19.9-45.8,29.9-75.2,29.9s-54.5-9.9-75.4-29.7c-20.8-19.8-31.2-43.7-31.2-71.8s10.4-51.9,31.2-71.8c20.8-19.8,45.9-29.7,75.4-29.7s54.5,10,75.4,29.9c20.8,19.9,31.2,43.8,31.2,71.6s-10.5,51.7-31.4,71.6ZM1713.4,470.4v-196.4h140.1v42h-93.9v35.1h68.1v42h-68.1v35.1h93.9v42h-140.1v.2ZM1548.3,470.4v-196.4h46.2v154.3h94.8v42h-141ZM1420.2,470.4v-154.3h-57.3v-42h161.6v42h-57.8v154.3h-46.5ZM1279.3,473.8c-16.3,0-31-3.1-44.3-9.3-13.3-6.2-24-14.8-32.1-25.9l35.4-28.5c5,6.8,11.5,12.3,19.3,16.3,7.8,4.1,15.6,6.1,23.4,6.1s13.6-1.5,18.2-4.6c4.5-3.1,6.8-7,6.8-11.8s-2.2-9.3-6.7-13-11.8-7.2-22.1-10.5l-14.5-4.7c-34.7-11.1-52-30-52-56.7s6.6-33.4,19.9-44.3,30.4-16.3,51.3-16.3,48.9,9,66.5,27.1l-30.2,30.4c-9.5-10.9-21.4-16.3-35.7-16.3s-12.6,1.3-17.6,3.9c-4.9,2.6-7.4,6.3-7.4,11.1s2.3,9,7,12c4.6,3,13,6.6,25,10.6l14.5,5c32.9,11.2,49.3,30.8,49.1,58.6,0,17.9-6.9,32.5-20.8,43.7-13.8,11.2-31.5,16.9-53,16.9v.2ZM1117.6,399.4l-20-38.4-20,38.4h40.1,0ZM1137.9,437.5h-80.7l-17.7,32.9h-48.5l106.6-199.7,106.6,199.7h-48.5l-17.7-32.9h-.1ZM988.5,443.7c-5.6,5.8-12,10.9-19.8,15.4-17,9.8-33.8,14.7-54.8,14.7s-54.6-9.9-75.4-29.7c-20.8-19.8-31.2-43.7-31.2-71.8s10.4-51.9,31.2-71.8c20.8-19.8,45.9-29.7,75.4-29.7s37.8,4.9,54.8,14.7c7.6,4.4,14,9.4,19.5,15.1l-30.5,29.5c-11.4-11.1-26-16.6-43.9-16.6s-30.8,5.8-42.6,17.4c-11.7,11.6-17.6,25.4-17.6,41.5s5.9,29.9,17.6,41.5,25.9,17.4,42.6,17.4,32.8-5.7,44.3-17l30.3,29.6v-.2ZM617.6,443.7c-5.6,5.8-12,10.9-19.8,15.4-17,9.8-33.8,14.7-54.9,14.7s-54.5-9.9-75.4-29.7c-20.8-19.8-31.2-43.7-31.2-71.8s10.4-51.9,31.2-71.8c20.8-19.8,45.9-29.7,75.4-29.7s37.8,4.9,54.9,14.7c7.6,4.4,14,9.4,19.5,15.1l-30.5,29.5c-11.4-11.1-26-16.6-43.9-16.6s-30.8,5.8-42.5,17.4-17.6,25.4-17.6,41.5,5.9,29.9,17.6,41.5,25.9,17.4,42.5,17.4,32.8-5.7,44.3-17l30.3,29.6v-.2ZM636.1,235.3h46.2V38.9h-46.2v196.4ZM486.7,127.8h49c13.4,0,24.3-10.9,24.3-24.3s-10.9-24.3-24.3-24.3h-49v48.7h0ZM486.7,235.3h-46.2V38.9h98.3c35.6,0,64.5,28.9,64.5,64.5s-28.9,64.5-64.5,64.5h-52.1v67.4h0ZM260.5,235.3V38.9h140.1v42h-93.9v35.1h68.1v42h-68.1v35.1h93.9v42h-140.1v.2ZM220.7,238.7l-142.2-108.8v105.5h-46.2V35.7l141.9,108.8V39h46.5v199.7ZM75.9,367.5h42.1c10.1,0,17.2-2.5,21.8-8,4.9-5.2,6.5-12.3,6.5-17.2s-1.5-12-6.5-17.2c-3.9-4.7-9.6-7.2-17.5-7.8h-46.4v50.2h0ZM75.9,395.1v75.3h-43.6l.7-196.4h88.4c49.1,0,71.3,37.5,71.3,68.2v.2c0,24-14.6,51.3-44.6,61.5l75.3,65.2h-59.9l-87.6-74.1h0ZM682,370.9l72.9-96.8h53.2l-72.3,94.3,89.4,102.1h-57.2l-86-99.6ZM636.1,470.4h45.9v-196.4h-45.9v196.4Z"></path></svg>