<?xml version="1.0" encoding="UTF-8"?>
<svg id="Layer_1" data-name="Layer 1" xmlns="http://www.w3.org/2000/svg" viewBox="0 0 954 327">
  <defs>
    <style>
      .cls-1 {
        fill: #fff;
      }
    </style>
  </defs>
  <path class="cls-1" d="M821.12,326.12c-3.47-2.8-9.37-5.24-13.77-5.75-6.13-.72-10.86,2.42-16.96-.95-5.74-3.17,1.46-11.04,3.21-15.32,7.5-18.35,4.55-39.62,10.24-56.76,2.78-8.38,10.79-12.96,12.02-20.98,1.42-9.28.62-19.59,2.53-29.47,1.4-7.23,5.84-16.02,6.64-22.35.72-5.75-1.31-10.79-.78-16.8.71-8.13,5.89-13.7,6.78-20.21.5-3.62-1.01-23.48-2.92-25.41-1.54-1.56-1.87.82-2.28,1.28-2.07,2.33-8.6,8.53-9.27,10.66-.73,2.3-.2,4.8-.89,7.11-2.59,8.59-6.9,16.75-9.57,25.43-3.43,11.17-4.15,31.32-16.24,35.74-6.64,2.43-9.57-3.7-11.74-9.22,7.37.25,7.13-6.3,9.99-10.52,5.34-7.86,7.01-3.2,7.05-16.03.06-17.94,1.92-23.67,8.75-40.16,5.89-14.23,11.83-29.36,18.67-43.33,5.54-11.32,15.65-11.78,16.57-27.42.64-10.84-5.74-24.41,2.44-33.57,6.21-6.95,26.01-5.14,31.38,2.76-.75,4.01.2,7.79.21,11.8,0,2.35-1.29,4.62-1.06,6.88.2,1.97,2.41,4.15,2.09,5.95-.14.79-2.15.8-2.88,2.3-1.72,3.54-1.29,3.64-3.61,7.38-2.79,4.48.47,6.3-8.59,3.95-3.27,9.22,2.71,12.68,6.52,19.98,3.49,6.7,6.74,12.75,6.53,20.55-.17,6.47-1.2,17.19,1.46,23.45.71,1.68,8.66,8.68,10.9,12.1,4.28,6.53,6.64,14.37,11.16,20.84,5.91,8.47,12.73,9.53,11.46,21.6-1.07,10.16-6.8,6.01-14.02,4.46,5.7-8.72-1-10.04-3.25-15.24-.8-1.86-.49-3.98-1.3-5.7-2.31-4.94-16.39-14.23-18.97-21.04-2.27-.42-1.38.99-1.49,2.48-.3,4.03-2.18,21.64-1.84,23.76.6,3.69,6.25,11.1,8.02,15.07,6.59,14.76,14.75,36.44,19.36,51.64,1.25,4.12-.12,8.98.69,13.31,1.43,7.69,14.74,43.53,18.93,50.07.94,1.47,6.01,6.66,7.34,6.66h19c.57,0,8.3-3.93,10.52-4.55,2.44-.69,1.7-.28,2.98,1.55v3c-4.83.31-6.44,8.17-9.04,10.43-7,6.1-12.31,4.77-19.52,7.52-4.4,1.68-10.06,8.53-15.44,5.54-1.77-.98-10.42-24.65-12.83-29.17-6.66-12.53-20.52-26.72-22.07-40.93-.69-6.31,1.05-12.57-1.37-18.63-1.92-4.81-11.81-13.34-15.71-18.29-3.2-4.07-5.33-8.85-9.02-12.47-.94,4.66-2.47,9.87-4.25,14.26-4.72,11.63-10.65,21.84-15.94,33.06-5.81,12.35-16.88,40.27-16.65,53.2.08,4.6,9.59,12.14,13.47,14.33,4.64,2.62,20.57,4.64,7.36,10.14h-11Z"/>
  <path class="cls-1" d="M701.71,42.73c-.22.41-1.2.62-1.54,1.15-2.71,4.15-.67,6.08-7.55,6.33-1.72.06-4.56-1.44-5.54-.68-.42.33-2.89,9.24-2.93,10.18-.16,3.75,9.57,17.44,10.73,24.14,1.47,8.51-3.42,16.91-1.74,25.74.86,4.54,19.63,17.09,23.85,14.39l27.17-120.83,4.84,1.54-26.91,122.84c4.68,2.1,4.64,5.12,3.79,9.85-.2,1.13-2.88,10.32-3.23,10.76-1.47,1.89-4.73.06-5.59,1.6l-14.74,61.15c-.81,6.69,5.03,14.66,4.84,20.68-.12,3.84-3.18,8.08-3.79,12.3-.7,4.87.2,9.82-.39,14.61-1.1,8.97-8.78,33.85-6.11,40.38.61,1.48,2.96,3.71,4.3,4.69,6.27,4.55,15.81,9.52,23.45,10.55,4.17.56,8.34-1.99,6.27,4.3-2.59,7.89-19.09,2.96-25.24,2.67-7.76-.36-17.46,1.61-24.04,1.1-12.63-.99-5.36-11.12-3.97-18.02,3.99-19.71-3.34-33.54-1.53-51.53.84-8.3,6.88-13.27,6.02-21.03-.72-6.5-11.99-15.74-14.54-22.49l-4.31,10.69c-6.07,4.71-9.27,17.99-12.73,22.27-2.25,2.77-11.98,7.3-15.97,11.03-6.77,6.31-14.2,15.16-20.95,22.05-4.25,4.34-13.13,9.98-12.5,17.36.16,1.87,3.39,15.76,4.09,17,2.59,4.59,13.74.82,11.87,7.08-.71,2.38-15.44,1.89-18.04,1.09-5.53-1.71-8.78-11.25-12.44-15.56-4.85-5.72-13.17-7.07-12.57-15.48.52-7.24,10.07-9.36,14.99-13.08,11.64-8.81,13.94-20.12,20.19-31.81,6.6-12.34,23.05-11.74,25.62-20.38,1.03-3.45,2.48-32.12,1.26-33.24-.18-.17-3.31.24-4.98-.51-.4-.18-5.8-5.46-6.07-5.93-2.75-4.79.62-18.52-.43-25.58s-4.86-14.86-5.5-22.49c-.22-2.64.25-20.3.88-22.01,1.03-2.77,4.65-7.15,6.27-10.8,5.41-12.17,10.77-25.72,17.99-37.01,3.84-6,11.41-10.85,14.33-17.67,5.3-12.39-1.29-20.34.58-32.42,2.07-13.4,24.21-15.38,33.99-10.12,7.45,4.01,4.38,5.9,6.69,11.31.63,1.48,2.8,2.66,3.11,3.94.4,1.66-1.24,3.54-.72,5.59.48,1.91,5,4.04,4.89,7.26-.08,2.4-2.81,2.27-3.57,3.47-.21.34-.21,4.55-1.86,7.59ZM645.1,111.13c-1.51-1.27-4.15,4.42-6.06,4.42-2.45,3.24.27,11.55.13,16.1-.2,6.54-3.29,13.53-2.04,20.47,2.83.51,1.64-.67,2.25-2.19,3.11-7.79,8.98-18.05,8.68-26.15-.05-1.36-2.45-12.23-2.95-12.65ZM711.05,140.2c-.33-.3-3.26.12-4.91-.59-2.51-1.08-4.03-5.87-7.31-7.69-2.86-1.59-6.47-2.01-9.7-1.79,3.34,9.93-2.19,20.77-.91,30.41.62,4.73,5.38,13.45,7.17,18.82.93,2.8,3.22,15.15,3.74,15.77.38.45,2.6.25,2.09-1.4,1.66-14.29,9.78-32.62,10.68-46.41.08-1.19-.59-6.88-.85-7.12Z"/>
  <path class="cls-1" d="M200.78,135.43c3.6,5.16-1.02,7.68-.52,10.96.23,1.48,5.54,9.38,6.6,12.48.43,1.26,1.78,6.71,1.24,7.22l-2.98.52c1.75,1.58,3.47,2.85,3,5.49-3.48-.85-5.65,3.18-7.71,3.8-10.16,3.02-15.33-6.95-24.29-7.78,1.24,7.99,2.45,15.36,2.04,23.54-.28,5.55-2.24,11.44-2.06,16.91.3,8.9,4.68,19.98,5.9,29.16,2.2,16.62,2.22,38.13,2.07,54.84-.03,3.65,1.54,15.56-.95,17.05-1.83,1.1-13.41.79-15.34-.44-5.09-3.23,1.31-5.32,4.39-5.65,1.09-5.12-1.55-10.52-1.69-15.08-.11-3.75,1.94-7.88,1.59-11.72-.65-7.05-9.11-20.37-11.24-28.84-1.5-5.98-1.02-10.63-1.94-16.06-.13-.75-2.03-6.33-3.76-4.72-.91,4.54-4.48,8.44-5.73,12.78-5,17.4-4.45,40.57-12.57,57.43-1.26,2.62-4.93,6.45-5.47,8.53-1.21,4.6,2,9.95-3.51,12.49-8.76,4.04-13.62,1.19-14.72-8.22l5.99,2.99c-2.41-7.8,2.29-12.53,4.48-19.02,4.77-14.12-5.4-47.4-5.38-63.6,0-4.61,4.04-8.65,3.9-13.37-5.51-.26-10.37,2.7-15.77,3.72s-22.6.7-25.13,3.87c-7.07,8.86-.6,19.76-1.02,29.92-.33,7.75-.92,14.99-1.04,22.94-.09,6.02-6.6,18.6-1.02,23.04,5.81,4.61,17.67-.28,20.98,8.51-4.11.95-6.99,2.79-11.47,3.04-4.5.26-8.07-1.17-12.03-1.13-5.44.05-23.26,4.93-22.31-5.16.33-3.55,3.51-8.03,3.6-13.25.13-7.55-4.09-14.58-4.57-20.23-.2-2.33,1.89-11.97.78-13.26l-20.7,13.79-9.3,4.21c1.18,2.88,1.8,6.72,3.1,9.39,4.13,8.46,8.81,7.61,15.59,12.37.63.44,2.94.66,1.31,2.22-.32.3-7.22,1.95-8.44,2.06-16.97,1.5-14.88-7.08-24.53-15.58-2.35-2.07-5.65-2.71-7.48-5.51-5.43-8.3,2.87-8.93,7.48-12.43,7.54-5.72,12.15-15.95,18.96-22.04,2.46-2.2,13.12-7.8,13.55-8.48,1.65-2.63-3.23-10.39-4.25-13.8-3.1-10.29-3.9-19.1,1.9-28.54,4.37-7.11,10.13-9.04,15.86-14.14,1.72-1.53,2.58-4.01,4.42-5.58,25.29-21.75,59.88-28.49,88.94-42.06,3.69-1.72,6.76-5.53,10.29-7.71,11.33-7.02,20.84-8.8,32.26-.62,1.54,1.1,7.73,7.32,8.73,8.75Z"/>
  <path class="cls-1" d="M535.73,71.75c-.38.53-4.86,5.1-5.22,5.17-3.23.65-12.34-4.8-14.74-4.59-.99.09-8.56,5.97-8.69,6.5-1.42,5.69,6.64,20.73,6.1,28.77-.23,3.47-4.86,13.16-6,18.09-.69,3.01-2.8,10.19-1.93,12.76.73,2.17,24.03,15.58,27.83,16.24,5.56.97,12.73-3.08,15.73-1.86.57.23,9.54,6.77,9.86,7.29.4.67-.32,5.26-.64,6.23-.27.82-1.53.65-1.88,1.54s.24,2.91-.04,3.21c-.36.4-3.67-.36-4.01,0-.32.34.49,2.85-.14,3.84-.28.45-2.75.8-3.8,1.7-6.32,5.4-7.45,13.08-11.64,19.38-.65.99-6.44,7.87-6.93,8.07-1.8.76-1.52-1.13-1.8-2.2-1.26-4.7.96-3.83,1.88-6.74,1.45-4.61,2.24-5.7,3.67-9.32.94-2.39,4.7-11.72,4.76-13.34.12-3.22-3.02-5.17-5.75-6.12-3.26-1.13-29.97-6.78-31.64-6.33-.79,4.51-4.54,11.42-4.65,15.61-.13,4.9,8.07,22.18,9.59,29.42s5.01,27.77,5.11,34.7c.06,4.27-2.99,7.86-3.56,11.92-.75,5.43-.1,10.73-1.36,16.64-2.23,10.44-10.34,23.43-3.26,33.81,9.24,3.45,15.78,11.47,26.54,9.97.04,1.81.44,4.2-1.64,4.86-.57.18-9.75,1.17-10.91,1.17-4.47.03-8.94-1.17-13.99-1.07-5.5.1-20.5,4.44-22.93-.99-1.82-4.04,3.96-20.45,4.46-26.49.85-10.16-2.28-20.77-.9-30.89.77-5.65,5.65-9.32,5.95-15.12.2-3.92-2.17-11.7-5.03-14.47l-3.22,24.29c-1.08,4.66-8.11,7-11.8,10.2-3.36,2.91-6.09,6.65-9.52,9.48-5.17,4.26-23.54,14.32-25.03,18.98-1.59,4.99,1.56,8.28,1.56,12.55,0,5-3.73,8.47,2.65,12.35,2.66,1.61,9.14,1.58,5.92,6.22-1.37,1.98-18.53,1.11-21.51-.62-5.01-2.9-2.16-12.33-3.52-17.48-.95-3.6-5.55-7.33-6.32-10.67-2.54-11.12,2.58-8.59,8.3-12.28,11.14-7.18,14.58-22.52,22.48-29.52,3.99-3.54,9.95-6.82,15-8.55-.08-10.06-5.35-19.14-6.88-28.55-1.19-7.33.27-14.43-.05-20.86-.34-6.88-5.25-15.77-5.13-24.03.24-16.86,16.2-37.26,13.08-55.5-.57-.63-14.97,6.33-15.45,7.04-1.38,2.05-2.26,11.94-3.79,16.21-1.91,5.35-5.48,10.95-7.53,16.47-2.62,7.06-6.71,25.89-10.68,30.32-1.55,1.73-11.35,9.98-13.21,10.79-9.58,4.18-12.82-4.58-11.34-12.83,4.69,1.47,4.08,5.05,8.89.38,1.02-.99,10.76-16.13,11.31-17.68,3.25-9.05,1.81-22.8,4.05-32.95,4.58-20.77,17.32-31.39,31.26-45.74,2.19-2.25,3.77-5.76,6-8,7.32-7.38,21.78-16.21,26.5-25.5,6.36-12.49,7.72-33.45,27.33-32.43,5.08.26,17.13,4.82,19.72,9.36,1.15,2.02.61,4.05,1.47,5.53,1.1,1.91,4.35,1.36,4.54,6.55.15,4.15-2.91,6.24-3.07,9.05-.06.99,1.03,6.3,1.22,8.91.4,5.47,2.15,5.83-1.61,11.14Z"/>
  <path class="cls-1" d="M332.11,226.14c4.61,6.76-.14,11.82-1.54,17.94-2.45,10.71-2.07,30.61-2.44,42.56-.62,19.7,8.45,21.02,24.71,27.27,3.47,1.33,11.17,1.23,7.37,5.81-3.02,3.65-22.29.24-27.6.34-6.89.14-12.84,3.7-20.32,1.4s-2.79-8.12-2.25-12.91c1.06-9.39,1.43-17.52-1.21-26.64-2.14-7.41-6.07-11.77-5.77-20.32.36-10.14,12.75-26.72.54-32.46-2.68-1.26-.36,4.12-.41,5.46-.13,3.9-8.33,12.93-10.89,17.22-4.04,6.78-21.86,40.16-18.03,46.15.22.35,2.73.86,3.79,1.69,2.36,1.85,6.41,6.17,8.67,7.35,2.33,1.22,21.63,3.98,12.13,8.36-4.94,2.28-20.06-1.97-26.22-2.28-6.85-.34-15.42,4.44-20.49,1.48-8.2-4.81,3.97-19.31,5.67-26.22,3.65-14.79-3.1-26.98,6.86-40.14,2.08-2.74,13.42-12.46,13.25-14.4-4.26-9.09-11.58-16.14-15.7-25.33-2.04-4.54-2.94-9.62-4.95-14.05-1.84-4.07-5.44-8-6.99-12.01-6.29-16.3,6.34-26.36,13.32-39.27,13.99-25.88,18.83-52.52,48.17-67.83,6.54-3.41,19.3-5.97,24.29-9.71s2.87-13.6,14.03-17.97c13.62-5.33,22.53,7.11,33.52,12.45,2.29,4.03-2.09,7.81-1.57,11.48.34,2.39,2.58,2.93,3.46,4.63,3.14,6.08,5.67,14.38,0,19.85-4.89,4.72-14.77-2.56-20.88-2.98-7.29-.51-15.04,2.9-18.74,9.36s-1.85,12.37-5.96,19.04-4.68,7.68-7.95,15.05c-1.07,2.41-4.16,5.44-4.65,7.35-2.48,9.58,3.7,16.89,4.64,25.88s.21,18.77,1.13,27.87c.52,5.16,5.84,25.21,1.98,28.04-.68.5-2.09.45-3,.49ZM325.11,210.12c.31-3.46,0-6.21-.94-9.55-.34-1.22-5.37-13.38-7.05-11.44.46,3.7-.78,8.84.21,12.28.22.76,6.65,10.04,7.78,8.71Z"/>
</svg>