<?xml version="1.0" encoding="UTF-8"?>
<svg version="1.1" xmlns="http://www.w3.org/2000/svg" width="1062" height="309">
<path d="M0 0 C132.99 0 265.98 0 403 0 C403 66.33 403 132.66 403 201 C394.75779577 199.96972447 392.14132919 198.79528444 386 194 C385.2678125 193.4328125 384.535625 192.865625 383.78125 192.28125 C377.08851886 186.71968469 372.07332236 179.9935519 367 173 C366.24332031 171.96359375 365.48664063 170.9271875 364.70703125 169.859375 C362.6215689 166.96697496 360.55778271 164.06158986 358.5078125 161.14404297 C357.42712274 159.60734973 356.34344162 158.0727585 355.2578125 156.53955078 C347.69124163 145.84705995 340.32013778 135.06805521 333.3125 124 C320.3608815 103.55621872 307.15878131 82.89402699 292 64 C291.51273437 63.38930664 291.02546875 62.77861328 290.5234375 62.14941406 C278.18032443 46.44435049 278.18032443 46.44435049 260.625 38.5 C255.48341729 39.20918382 253.24385878 41.03853703 250 45 C245.26226447 53.49627865 242.5475816 62.27829694 240.47265625 71.73046875 C240.17839875 73.03175541 239.88413278 74.33304014 239.58985901 75.63432312 C236.22900299 90.74505296 233.8402307 106.0265267 231.4375 121.3125 C226.44765588 153.01777644 226.44765588 153.01777644 222.875 167.96875 C222.6386937 168.95841263 222.40238739 169.94807526 222.15892029 170.96772766 C216.28737787 194.52014507 216.28737787 194.52014507 208 200.19921875 C202.54321342 202.38406494 197.56882884 202.09632026 192.19921875 199.8046875 C178.93289588 192.0362891 169.95650176 178.16338481 161 166 C160.34004028 165.10701202 160.34004028 165.10701202 159.66674805 164.19598389 C151.22064206 152.73965106 143.26210979 141.00993354 135.48196411 129.0932312 C132.31172413 124.23921966 129.12576371 119.39553812 125.94140625 114.55078125 C125.32718307 113.61569229 124.7129599 112.68060333 124.0801239 111.71717834 C113.18334704 95.13735842 102.01292136 78.79648814 90 63 C89.56461914 62.42652832 89.12923828 61.85305664 88.68066406 61.26220703 C81.37022333 51.72543175 72.40562536 40.50490006 59.875 38.5 C54.37148634 39.45713281 51.16436716 42.43848568 47.9375 46.8125 C42.00954495 56.3991148 39.78727298 67.37850164 37.625 78.29296875 C37.40927841 79.3776091 37.19355682 80.46224945 36.97129822 81.57975769 C34.72587523 93.08154559 32.9087241 104.64382533 31.1192627 116.22369385 C19.69698704 189.84991463 19.69698704 189.84991463 6.375 200 C4 201 4 201 0 201 C0 134.67 0 68.34 0 0 Z " fill="#F05027" transform="translate(0,108)"/>
<path d="M0 0 C24.42 0 48.84 0 74 0 C75.29428963 3.23572407 76.30084274 5.84798175 77.05322266 9.14770508 C77.23325836 9.92813675 77.41329407 10.70856842 77.5987854 11.51264954 C77.78532684 12.3399205 77.97186829 13.16719147 78.1640625 14.01953125 C78.45946426 15.30738777 78.45946426 15.30738777 78.76083374 16.6212616 C79.38601446 19.35082391 80.00558165 22.0816249 80.625 24.8125 C81.0491088 26.66870445 81.47358391 28.52482525 81.8984375 30.38085938 C82.93653716 34.9196149 83.96960583 39.45948924 85 44 C85.33 44 85.66 44 86 44 C86.2673999 42.73816895 86.5347998 41.47633789 86.81030273 40.17626953 C87.80087176 35.50543342 88.79502791 30.83536695 89.7902832 26.16552734 C90.22095435 24.14229898 90.65064564 22.11886178 91.0793457 20.09521484 C91.6948659 17.19052877 92.31387845 14.28660605 92.93359375 11.3828125 C93.12529648 10.47443634 93.31699921 9.56606018 93.51451111 8.63015747 C93.69462234 7.78943695 93.87473358 6.94871643 94.06030273 6.08251953 C94.21796616 5.34083527 94.37562958 4.599151 94.53807068 3.83499146 C95 2 95 2 96 0 C119.1 0 142.2 0 166 0 C166 33.99 166 67.98 166 103 C148.18 103 130.36 103 112 103 C111.67 87.82 111.34 72.64 111 57 C107.37 72.18 103.74 87.36 100 103 C88.12 103 76.24 103 64 103 C59.40313017 87.11990422 55.70191188 71.11420465 52 55 C51.67 70.84 51.34 86.68 51 103 C34.17 103 17.34 103 0 103 C0 69.01 0 35.02 0 0 Z " fill="#F05027" transform="translate(409,108)"/>
<path d="M0 0 C15.51 -0.0825 31.02 -0.165 47 -0.25 C51.86621094 -0.28641602 56.73242188 -0.32283203 61.74609375 -0.36035156 C67.76757812 -0.37841797 67.76757812 -0.37841797 70.60180664 -0.3817749 C72.5478076 -0.3878483 74.49379515 -0.40177034 76.43969727 -0.42230225 C96.48595887 -0.62292633 114.70173215 1.41183097 130 15.80859375 C139.50393924 26.22208968 143.3820878 39.88980579 143.2109375 53.71875 C142.38452394 66.5740721 137.57622525 79.11085817 128 88 C113.64355768 99.88651676 96.94621872 103.1963987 78.78662109 103.11352539 C77.91314341 103.11364593 77.03966572 103.11376646 76.13971901 103.11389065 C73.35093133 103.11315249 70.56221301 103.10557501 67.7734375 103.09765625 C66.03621452 103.09618342 64.29899109 103.09516481 62.56176758 103.09460449 C56.16617156 103.08939107 49.77058508 103.07542985 43.375 103.0625 C29.06125 103.041875 14.7475 103.02125 0 103 C0 69.01 0 35.02 0 0 Z M53.6953125 35.06640625 C48.40259952 41.1030259 47.21859245 46.72592049 47.48828125 54.7421875 C48.5487976 61.49387177 52.07042063 66.82290655 57.4375 71 C62.90981029 74.40365673 68.60529048 75.65030944 75 75 C83.2066985 72.99541299 88.18148308 68.85434032 93 62 C95.55447123 56.99749384 95.77849412 51.51433337 95 46 C92.78094073 39.26357006 89.20938978 33.61121901 83 30 C72.08233616 25.62961097 62.35866153 26.63104008 53.6953125 35.06640625 Z " fill="#F05027" transform="translate(705,108)"/>
<path d="M0 0 C38.28 0 76.56 0 116 0 C116 11.55 116 23.1 116 35 C96.2 35 76.4 35 56 35 C56 37.31 56 39.62 56 42 C75.14 42 94.28 42 114 42 C114 48.6 114 55.2 114 62 C94.86 62 75.72 62 56 62 C56 64.31 56 66.62 56 69 C76.13 69 96.26 69 117 69 C117 80.22 117 91.44 117 103 C78.39 103 39.78 103 0 103 C0 69.01 0 35.02 0 0 Z " fill="#F05027" transform="translate(582,108)"/>
<path d="M0 0 C18.15 0 36.3 0 55 0 C57.39403832 5.98509581 59.73115592 11.88752197 61.796875 17.9765625 C62.00908691 18.5955542 62.22129883 19.2145459 62.43994141 19.85229492 C63.21276451 22.10890509 63.98114478 24.36703485 64.75 26.625 C66.4825 31.69875 68.215 36.7725 70 42 C70.33 28.14 70.66 14.28 71 0 C86.51 0 102.02 0 118 0 C118 29.7 118 59.4 118 90 C99.19 90 80.38 90 61 90 C56.71 77.79 52.42 65.58 48 53 C47.67 65.21 47.34 77.42 47 90 C31.49 90 15.98 90 0 90 C0 60.3 0 30.6 0 0 Z " fill="#F05027" transform="translate(466,219)"/>
<path d="M0 0 C18.15 0 36.3 0 55 0 C59.95 14.19 64.9 28.38 70 43 C70.33 28.81 70.66 14.62 71 0 C86.51 0 102.02 0 118 0 C118 29.7 118 59.4 118 90 C99.19 90 80.38 90 61 90 C56.71 78.12 52.42 66.24 48 54 C47.67 65.88 47.34 77.76 47 90 C31.49 90 15.98 90 0 90 C0 60.3 0 30.6 0 0 Z " fill="#F05027" transform="translate(829,219)"/>
<path d="M0 0 C0.80991898 0.00359528 1.61983795 0.00719055 2.45429993 0.01089478 C3.30300659 0.01074875 4.15171326 0.01060272 5.02613831 0.01045227 C7.84523532 0.01115168 10.66426712 0.01894539 13.48335266 0.02676392 C15.43248458 0.028628 17.38161696 0.03005195 19.33074951 0.03105164 C24.47151473 0.03487761 29.61225188 0.04470858 34.75300598 0.05575562 C39.99449789 0.06596802 45.23599431 0.07054889 50.47749329 0.07559204 C60.76982335 0.08633078 71.06213255 0.10340815 81.35444641 0.12442017 C82.18406332 3.02807934 83.01367687 5.93173947 83.84327698 8.83540344 C84.58569577 11.4338176 85.32816089 14.03221848 86.07069397 16.63059998 C87.91247808 23.07589568 89.7537986 29.52132233 91.59299278 35.96735764 C92.62256722 39.57578279 93.65247908 43.18411157 94.68257141 46.79238892 C94.88615894 47.50555267 95.08974648 48.21871643 95.29950333 48.95349121 C97.77307712 57.61619292 100.26087452 66.27454869 102.77632141 74.92520142 C103.46777819 77.31130166 104.15886363 79.69750916 104.84986877 82.08374023 C105.4656561 84.20198295 106.08841692 86.31809332 106.71138 88.43423462 C107.07054504 89.67519897 107.42971008 90.91616333 107.79975891 92.19473267 C108.10413879 93.23387817 108.40851868 94.27302368 108.72212219 95.34365845 C109.35444641 98.12442017 109.35444641 98.12442017 109.35444641 103.12442017 C88.89444641 103.12442017 68.43444641 103.12442017 47.35444641 103.12442017 C45.35444641 93.12442017 45.35444641 93.12442017 45.35444641 89.12442017 C39.41444641 89.12442017 33.47444641 89.12442017 27.35444641 89.12442017 C27.21007141 90.69192017 27.06569641 92.25942017 26.91694641 93.87442017 C26.6178301 97.12196864 26.15182499 99.93490586 25.35444641 103.12442017 C5.55444641 103.12442017 -14.24555359 103.12442017 -34.64555359 103.12442017 C-33.39249113 96.85910787 -32.11611535 90.83306128 -30.3547821 84.72817993 C-30.13497681 83.95434967 -29.91517151 83.18051941 -29.68870544 82.38323975 C-28.97094694 79.85971024 -28.24773145 77.33778074 -27.52445984 74.81582642 C-27.01848034 73.04053304 -26.51286651 71.2651354 -26.00759888 69.48963928 C-24.68219462 64.83559067 -23.3522318 60.18285753 -22.02116394 55.53042603 C-20.4102754 49.897032 -18.80441269 44.26220379 -17.19818783 38.6274786 C-15.94722809 34.23919753 -14.69543342 29.85116155 -13.44085693 25.46391296 C-12.98242263 23.85930939 -12.52404168 22.25469057 -12.0657196 20.65005493 C-11.74253423 19.52008512 -11.74253423 19.52008512 -11.41281986 18.36728764 C-9.95450118 13.2534324 -8.55443775 8.12639636 -7.2147522 2.97999573 C-6.02558988 -0.89664855 -3.66232908 0.00686451 0 0 Z M20.04975891 35.19082642 C14.75704593 41.22744606 13.57303886 46.85034066 13.84272766 54.86660767 C14.90324402 61.61829194 18.42486704 66.94732672 23.79194641 71.12442017 C29.26425671 74.5280769 34.95973689 75.77472961 41.35444641 75.12442017 C49.56114492 73.11983315 54.53592949 68.97876049 59.35444641 62.12442017 C61.90891764 57.121914 62.13294053 51.63875354 61.35444641 46.12442017 C59.13538714 39.38799022 55.56383619 33.73563917 49.35444641 30.12442017 C38.43678257 25.75403114 28.71310795 26.75546025 20.04975891 35.19082642 Z " fill="#F05027" transform="translate(952.6455535888672,107.87557983398438)"/>
<path d="M0 0 C33.66 0 67.32 0 102 0 C102 10.23 102 20.46 102 31 C84.51 31 67.02 31 49 31 C49 32.98 49 34.96 49 37 C65.83 37 82.66 37 100 37 C100 42.94 100 48.88 100 55 C83.17 55 66.34 55 49 55 C49 56.98 49 58.96 49 61 C66.82 61 84.64 61 103 61 C103 70.57 103 80.14 103 90 C69.01 90 35.02 90 0 90 C0 60.3 0 30.6 0 0 Z " fill="#F05027" transform="translate(721,219)"/>
<path d="M0 0 C18.15 0 36.3 0 55 0 C55.94875 5.506875 56.8975 11.01375 57.875 16.6875 C58.17003418 18.39639404 58.46506836 20.10528809 58.76904297 21.8659668 C60.2663506 30.56531048 61.69964686 39.2686422 63 48 C64.49334028 42.34867679 65.60426084 36.75420791 66.47265625 30.9765625 C66.6646183 29.73548233 66.6646183 29.73548233 66.86045837 28.46932983 C67.26465743 25.85507987 67.66412379 23.24014317 68.0625 20.625 C68.59120327 17.15824873 69.12440019 13.69222989 69.66015625 10.2265625 C69.77996353 9.43077789 69.89977081 8.63499329 70.02320862 7.81509399 C70.88731043 2.22537914 70.88731043 2.22537914 72 0 C89.49 0 106.98 0 125 0 C121.62452124 13.50191506 121.62452124 13.50191506 119.88696289 19.23046875 C119.60333641 20.16978745 119.60333641 20.16978745 119.3139801 21.12808228 C118.70303678 23.1487587 118.08797552 25.16815225 117.47265625 27.1875 C117.0379141 28.62127501 116.60338375 30.05511425 116.16905212 31.48901367 C115.26401543 34.47467682 114.35702771 37.45973745 113.44848633 40.44433594 C112.29454999 44.23533257 111.1446506 48.02753848 109.99611759 51.82017517 C109.10084361 54.77542591 108.20385645 57.73015447 107.30633354 60.6847229 C106.88218582 62.08138573 106.45844229 63.47817138 106.0351429 64.87509155 C105.43922352 66.84041109 104.84110274 68.80504842 104.24243164 70.76953125 C103.90506485 71.87917236 103.56769806 72.98881348 103.22010803 74.13208008 C101.54503151 79.4423163 99.76080919 84.71757243 98 90 C74.57 90 51.14 90 27 90 C17.7777813 61.18056655 17.7777813 61.18056655 14.0625 48.59375 C13.64814399 47.196923 13.23358791 45.80015534 12.81884766 44.40344238 C11.97051086 41.54451444 11.12390447 38.6850829 10.27880859 35.82519531 C9.19453073 32.15611644 8.10651245 28.48815881 7.01737976 24.82051849 C6.17046706 21.96769287 5.3249625 19.11445159 4.47994995 16.26106262 C4.07836824 14.90532172 3.67645459 13.54967911 3.27420044 12.19413757 C2.72048881 10.32709761 2.16878293 8.45946314 1.6171875 6.59179688 C1.30378418 5.53246948 0.99038086 4.47314209 0.66748047 3.38171387 C0 1 0 1 0 0 Z " fill="#F05027" transform="translate(590,219)"/>
<path d="M0 0 C35.97 0 71.94 0 109 0 C109 12.21 109 24.42 109 37 C99.43 37 89.86 37 80 37 C80 54.49 80 71.98 80 90 C63.17 90 46.34 90 29 90 C29 72.51 29 55.02 29 37 C19.43 37 9.86 37 0 37 C0 24.79 0 12.58 0 0 Z " fill="#F05027" transform="translate(953,219)"/>
<path d="M0 0 C1.43665555 1.03531228 2.85462061 2.09719405 4.25 3.1875 C4.86617188 3.66574219 5.48234375 4.14398438 6.1171875 4.63671875 C14.70101149 12.20955902 19.03204 23.59120024 20.16796875 34.73828125 C20.47615927 47.69695876 16.89163963 58.98268622 8.515625 68.86328125 C-0.6274963 78.24286259 -12.2265434 83.21623202 -25.25 83.5 C-37.07031716 83.37648571 -47.56727778 79.69673546 -56.75 72.1875 C-67.17715225 61.42681931 -71.16967377 50.18046364 -71.11572266 35.39501953 C-70.89103727 24.72349436 -67.28868987 16.5557503 -60.75 8.1875 C-60.27175781 7.57132813 -59.79351562 6.95515625 -59.30078125 6.3203125 C-44.63625078 -10.30195125 -17.85697568 -11.11961924 0 0 Z " fill="#F05027" transform="translate(367.75,6.8125)"/>
<path d="M0 0 C17.75272581 0 30.13703747 3.09250414 43.12109375 15.02734375 C55.15620286 27.66295726 58.3416177 42.4079335 58.1953125 59.34765625 C58.19329834 60.45911011 58.19128418 61.57056396 58.18920898 62.71569824 C58.17881701 66.83134136 58.15089493 70.94692523 58.125 75.0625 C58.08375 84.281875 58.0425 93.50125 58 103 C38.86 103 19.72 103 0 103 C0 69.01 0 35.02 0 0 Z " fill="#F05027" transform="translate(854,108)"/>
<path d="M0 0 C15.20558177 0 25.69797407 4.3494563 36.70703125 14.67578125 C46.87502722 24.98235298 51.22996566 36.84133912 51.22631836 51.2244873 C51.21097046 52.67764343 51.21097046 52.67764343 51.1953125 54.16015625 C51.19329834 55.07502808 51.19128418 55.9898999 51.18920898 56.93249512 C51.17884364 60.30921533 51.15092207 63.68586337 51.125 67.0625 C51.08375 74.631875 51.0425 82.20125 51 90 C34.17 90 17.34 90 0 90 C0 60.3 0 30.6 0 0 Z " fill="#F05027" transform="translate(409,219)"/>
</svg>
