<?xml version="1.0" encoding="UTF-8"?>
<svg id="Layer_1" data-name="Layer 1" xmlns="http://www.w3.org/2000/svg" viewBox="0 0 2489 3933">
  <defs>
    <style>
      .cls-1 {
        fill: #fff;
      }

      .cls-2 {
        fill: none;
        stroke: #fff;
        stroke-miterlimit: 10;
        stroke-width: 15px;
      }

      .cls-3 {
        fill: #fd4d1e;
        fill-rule: evenodd;
      }
    </style>
  </defs>
  <path class="cls-3" d="M1224.92.06c228.49-3.06,322.05,104.5,374,278,15.05,50.26,19.3,103.63,31,158,2.67,13.67,5.33,27.33,8,41,11.64,13.64,25.12,15.9,31,37,11.43,41-3.78,140.42-15,169-9.92,25.28-29.37,35.04-38,57-12.33,49.66-24.67,99.34-37,149-15.11,48.3-38.13,91.12-56,137-14.96,38.42-21.94,97.78,0,134,37.33,61.64,121.14,95.07,190,125,123.79,53.81,266.81,92.25,402,135,99.16,31.36,193.12,63.87,251,136,57.87,72.12,88.89,153.48,111,264,6.55,32.72,3.38,65.51,9,101,5.44,34.35,6.79,88.35,1,124-1.67,38.33-3.33,76.67-5,115-13,149.65-26,299.35-39,449-2,48.33-4,96.67-6,145-.33,26.33-.67,52.67-1,79,.67,34.66,1.33,69.34,2,104,2.33,67.99,4.67,136.01,7,204,2,46.33,4,92.67,6,139v51c5.25,33.12,4.25,107.63-1,140-1.33,42.33-2.67,84.67-4,127-2,28.33-4,56.67-6,85-14.38,86.95-15.17,175.04-41,250H89.92c-7.33-34.66-14.67-69.34-22-104-6.67-50.33-13.33-100.67-20-151-3.67-62.66-7.33-125.34-11-188-.33-17-.67-34-1-51,.67-54.99,1.33-110.01,2-165,.33-24.66.67-49.34,1-74,3.33-68.33,6.67-136.67,10-205,1-35.33,2-70.67,3-106,.33-15.33.67-30.67,1-46,5.25-33.16,4.25-93.64-1-126-1.67-35.66-3.33-71.34-5-107-9.67-104.32-19.33-208.68-29-313-3.67-49-7.33-98-11-147-2-31.33-4-62.67-6-94v-45c-5.81-36.97-.89-99.48,5-134,3.67-28.66,7.33-57.34,11-86,18.86-85.54,46.33-157.86,91-217,86.56-114.61,242.1-145.01,396-193,94.38-29.43,189.53-58.59,275-96,66.97-29.32,151.17-63.37,187-124,24.24-41,12.1-105.14-4-146-17.35-44.04-39.37-85.37-54-132-14.11-44.98-17.15-96.41-34-139-10.49-26.51-33.3-42.06-43-72-8.53-26.33-21.45-131.9-10-164,6.6-18.5,28.71-22.5,33-42l24-140c31.12-125.28,72.17-223.19,170-281,32.92-19.45,74.02-30.05,117-39,20-2,40-4,60-6Z"/>
  <g>
    <rect class="cls-2" x="284.96" y="1259.87" width="1919.09" height="2554.43" rx="959.54" ry="959.54"/>
    <rect class="cls-2" x="492.95" y="1518.91" width="1503.1" height="2001.52" rx="751.55" ry="751.55"/>
    <rect class="cls-2" x="700.95" y="1777.96" width="1087.11" height="1448.61" rx="543.55" ry="543.55"/>
    <rect class="cls-2" x="908.94" y="2037" width="671.12" height="895.7" rx="335.56" ry="335.56"/>
    <rect class="cls-2" x="1116.93" y="2296.04" width="255.13" height="342.78" rx="127.57" ry="127.57"/>
  </g>
  <path class="cls-1" d="M1216.34,2416.17l16.83,25.36c4.39,6.58,8.05,12.68,11.95,19.26h.73c3.9-7.07,7.8-13.17,11.7-19.51l16.58-25.12h23.17l-40.24,57.06,41.45,60.96h-24.38l-17.31-26.58c-4.63-6.83-8.53-13.41-12.68-20.48h-.49c-3.9,7.07-8.05,13.41-12.44,20.48l-17.07,26.58h-23.65l41.94-60.23-39.99-57.79h23.9Z"/>
</svg>